<svg width="180" height="191" viewBox="0 0 180 191" fill="none" xmlns="http://www.w3.org/2000/svg">
<path d="M156.728 2.87012V120.225" stroke="#E0005B" stroke-width="4" stroke-linecap="round" stroke-linejoin="round"/>
<path d="M156.727 48.8664C140.531 29.922 124.325 67.8108 108.129 48.8664V13.7896C124.325 32.734 140.531 -5.15482 156.727 13.7896" stroke="#E0005B" stroke-width="4" stroke-linecap="round" stroke-linejoin="round"/>
<circle cx="41.2903" cy="113.423" r="1.82597" fill="#282828"/>
<path d="M27.1571 115.176L25.3859 124.379C25.2581 125.036 24.9751 125.684 24.5734 126.232L11.6273 143.533C9.39045 146.528 10.0021 150.773 12.9967 153.01C14.5579 154.178 16.4569 154.571 18.2281 154.261C19.8715 153.978 21.4053 153.083 22.4735 151.649L35.4105 134.348C37.0447 132.176 38.1677 129.61 38.6881 126.935L39.9936 120.17" stroke="#282828" stroke-width="4" stroke-linecap="round" stroke-linejoin="round"/>
<path d="M54.2407 55.1891C55.5669 49.57 52.0869 43.9398 46.4679 42.6136C40.8489 41.2874 35.2187 44.7674 33.8925 50.3864C32.5663 56.0054 36.0463 61.6356 41.6653 62.9619C47.2843 64.2881 52.9145 60.8081 54.2407 55.1891Z" stroke="#282828" stroke-width="4" stroke-linecap="round" stroke-linejoin="round"/>
<path d="M130.662 189V131.016H177.379V189" stroke="#282828" stroke-width="4" stroke-linecap="round" stroke-linejoin="round"/>
<path d="M66.5059 189V151.303H113.223V189" stroke="#282828" stroke-width="4" stroke-linecap="round" stroke-linejoin="round"/>
<path d="M2.3418 189V166.002H49.0591V189" stroke="#282828" stroke-width="4" stroke-linecap="round" stroke-linejoin="round"/>
<path d="M67.0539 137.928C65.931 140.055 63.7033 141.516 61.1287 141.543C61.1104 141.543 61.083 141.543 61.0556 141.543C57.3489 141.543 54.327 138.558 54.2813 134.833L54.0987 117.03L36.1221 111.963C33.2918 110.885 28.5626 108.913 27.047 105.325C26.3532 103.709 26.0519 101.902 26.2254 100.03L28.0513 80.6108L22.5004 82.2907C22.1443 82.4003 21.843 82.6285 21.6422 82.9298L14.174 94.196C13.1788 95.7024 11.5263 96.5241 9.83732 96.5241C8.8513 96.5241 7.85614 96.2411 6.97055 95.6568C4.57854 94.0682 3.93032 90.8545 5.50978 88.4625L12.978 77.1963C14.5118 74.8773 16.8216 73.1609 19.4875 72.3575L30.2973 69.089C32.8901 68.3038 35.6199 68.0299 38.3132 68.2856L48.0091 69.1986C48.1278 69.1986 48.2374 69.2259 48.3469 69.2442L59.7775 70.2576C60.307 70.3033 60.8183 70.0933 61.1469 69.6733L69.9937 58.6993C71.7923 56.4716 75.0608 56.1155 77.2976 57.9141C79.5253 59.7127 79.8813 62.9811 78.0828 65.218L69.236 76.2011C66.9535 79.0405 63.5298 80.6565 59.9327 80.6565C59.5766 80.6565 59.2205 80.6382 58.8645 80.6108L50.1364 79.8348L48.1095 101.281L62.6534 105.38C65.5475 106.202 67.5561 108.822 67.5926 111.826L67.83 134.705C67.8391 135.874 67.5561 136.969 67.0539 137.928Z" stroke="#282828" stroke-width="4" stroke-linecap="round" stroke-linejoin="round"/>
</svg>
